<svg t="1716839477827" class="icon" viewBox="0 0 1024 1024" version="1.1"
    xmlns="http://www.w3.org/2000/svg" p-id="13454" width="256" height="256">
    <path
        d="M878.336 200C685.44 194.56 560.64 100.288 523.52 68.352a17.408 17.408 0 0 0-23.04 0c-36.928 32-161.856 126.208-354.816 131.648A18.176 18.176 0 0 0 128 218.24v375.552C128 761.92 371.392 960 512 960c136.704 0 384-198.08 384-366.208V218.24a18.304 18.304 0 0 0-17.664-18.24zM351.04 359.872l90.816-13.696a18.176 18.176 0 0 0 13.504-10.176l40.64-85.312a17.664 17.664 0 0 1 32.192 0l40.64 85.312c2.56 5.44 7.68 9.28 13.504 10.24l90.88 13.632c14.72 2.176 20.48 20.928 9.92 31.68L617.408 457.92a18.944 18.944 0 0 0-5.12 16.448l15.552 93.76c2.56 15.168-12.8 26.752-26.048 19.584l-81.216-44.224a17.024 17.024 0 0 0-16.64 0l-81.408 44.16c-13.184 7.232-28.48-4.352-26.048-19.52l15.552-93.76a18.944 18.944 0 0 0-5.12-16.448L341.248 391.552c-10.752-10.752-4.8-29.504 9.792-31.68z m339.84 390.4a17.856 17.856 0 0 1-17.472 18.112H350.592a17.856 17.856 0 0 1-17.536-18.176v-45.248c0-10.048 7.808-18.176 17.536-18.176h322.816c9.728 0 17.536 8.128 17.536 18.176v45.248z"
        fill="#2c2c2c" p-id="13455"></path>
</svg>