<svg t="1714213321135" class="icon" viewBox="0 0 1024 1024" version="1.1" xmlns="http://www.w3.org/2000/svg" p-id="15085" width="200" height="200"><path d="M0 238.378667v544.298666h50.773333v-174.890666l19.626667-22.485334 134.272 197.376h50.773333L99.413333 553.386667l118.314667-133.546667h-7.253333L50.773333 599.808v-361.386667z m470.997333 178.56c-50.773333 0-92.885333 16.682667-126.293333 50.048-32.853333 33.408-49.322667 80.341333-49.322667 140.8 0 60.501333 15.957333 105.258667 47.872 134.272 31.957333 29.013333 73.301333 43.52 124.117334 43.52 51.285333 0 93.354667-16.64 126.293333-50.048 33.365333-33.408 50.048-80.341333 50.048-140.8 0-60.458667-15.957333-105.216-47.872-134.272-31.957333-29.013333-73.557333-43.52-124.842667-43.52z m379.562667 0a311.04 311.04 0 0 0-131.370667 29.738666l2.901334 5.12c11.136-6.314667 28.586667-12.629333 52.266666-18.901333 24.192-6.784 45.226667-10.154667 63.146667-10.154667 17.92 0 32.426667 2.432 43.52 7.253334 11.093333 4.352 18.858667 9.685333 23.253333 15.957333 4.352 6.314667 7.68 12.8 10.154667 19.626667 2.901333 6.272 3.84 11.605333 2.901333 15.957333 0.298667 41.386667 0 84.821333 0 126.976a395.477333 395.477333 0 0 0-35.584-1.450667c-13.056 0-27.306667 0.725333-42.794666 2.176-62.421333 3.882667-102.826667 14.506667-121.216 31.957334-9.173333 8.704-14.762667 16.682667-16.682667 23.936-1.962667 7.253333-2.901333 14.037333-2.901333 20.309333 0 5.802667 0.469333 11.648 1.450666 17.450667 8.234667 55.125333 42.794667 82.730667 103.765334 82.730666 52.266667 0 90.24-21.546667 113.92-64.597333v15.232c0 7.722667 5.589333 16.938667 16.725333 27.562667 12.074667 12.586667 34.56 18.901333 67.498667 18.901333H1024v-5.802667h-22.485333l-7.978667-1.450666c-5.802667-0.512-11.605333-4.394667-17.450667-11.648-5.290667-7.722667-7.978667-18.602667-7.978666-32.64v-243.114667c0-15.488-6.272-30.250667-18.858667-44.288-21.248-23.765333-66.730667-26.624-98.688-26.88z m-378.112 5.802666c36.778667 0 66.261333 14.037333 88.533333 42.069334 22.272 28.074667 33.408 71.381333 33.408 129.92 0 58.026667-12.117333 103.552-36.266666 136.448-24.234667 32.426667-54.698667 48.64-91.477334 48.64-36.778667 0-66.304-14.08-88.533333-42.112-22.272-28.074667-33.408-71.125333-33.408-129.194667 0-58.538667 12.117333-104.021333 36.266667-136.448 24.234667-32.853333 54.698667-49.322667 91.477333-49.322667z m404.949333 190.122667c13.568 0 26.88 0.512 39.936 1.450667v87.808c-1.450667 16.469333-12.586667 33.664-33.408 51.541333a103.082667 103.082667 0 0 1-68.949333 26.154667c-38.698667 0-60.202667-25.642667-64.554667-76.928a134.613333 134.613333 0 0 1-0.853333-13.098667c0-21.290667 5.589333-37.973333 16.725333-50.048 11.093333-12.117333 35.072-20.352 71.850667-24.704 13.397333-1.621333 27.306667-1.664 39.253333-2.133333z" fill="#33333D" p-id="15086"></path></svg>