<svg t="1716842987459" class="icon" viewBox="0 0 1024 1024" version="1.1" xmlns="http://www.w3.org/2000/svg" p-id="23022" width="256" height="256"><path d="M942.585247 562.53393c0 0-173.644829 239.251036-432.128905 239.251036-258.483052 0-432.128905-239.251036-432.128905-239.251036-19.692504-27.049053-19.692504-71.566966 0-98.614995 0 0 173.645852-239.251036 432.128905-239.251036 258.484076 0 432.128905 239.251036 432.128905 239.251036C962.278775 490.966964 962.278775 535.484877 942.585247 562.53393L942.585247 562.53393zM897.918955 503.446183c-1.533936-2.092661-160.652933-215.502146-387.462612-215.502146-226.846518 0-385.927653 213.408461-387.500475 215.58094-2.844791 3.944845-2.844791 15.458063 0.074701 19.482727 1.49812 2.093684 160.578232 215.503169 387.425773 215.503169 228.305753 0 385.853975-213.409484 387.462612-215.503169C900.803655 518.984065 900.803655 507.470847 897.918955 503.446183L897.918955 503.446183zM510.456343 696.248328c-91.576695 0-165.781744-81.9525-165.781744-182.980451 0-101.110839 74.205049-183.059246 165.781744-183.059246 91.614557 0 165.782767 81.948407 165.782767 183.059246C676.23911 614.295827 602.0709 696.248328 510.456343 696.248328L510.456343 696.248328zM510.456343 393.480676c-3.930519 0-7.862062 0.242524-11.68104 0.64366 12.355399 12.558014 20.292162 30.510898 20.292162 50.393737 0 37.997406-27.854395 68.749804-62.225203 68.749804-21.340027 0-40.09723-11.914354-51.291177-30.027897-2.321882 9.581216-3.593851 19.641339-3.593851 30.027897 0 66.00939 48.670489 119.7872 108.49911 119.7872 59.829644 0 108.500133-53.777811 108.500133-119.7872C618.956476 447.175599 570.285986 393.480676 510.456343 393.480676L510.456343 393.480676z" p-id="23023" fill="#b1b0b0"></path></svg>