<svg t="1716855496154" class="icon" viewBox="0 0 1024 1024" version="1.1"
    xmlns="http://www.w3.org/2000/svg" p-id="25152" width="256" height="256">
    <path
        d="M502.538 793.068L810.045 485.58a176.476 176.476 0 1 0-249.569-249.57l-57.938 57.918-57.917-57.917A176.476 176.476 0 0 0 195.05 485.58l307.487 307.487z m28.98 86.896a40.96 40.96 0 0 1-57.938 0L137.114 543.498C36.209 442.593 36.209 279 137.114 178.074c100.925-100.905 264.52-100.905 365.424 0 100.926-100.905 264.52-100.905 365.425 0 100.925 100.925 100.925 264.52 0 365.424L531.517 879.985z"
        p-id="25153" fill="#8a8a8a"></path>
</svg>