<svg t="1714213210406" class="icon" viewBox="0 0 1024 1024" version="1.1" xmlns="http://www.w3.org/2000/svg" p-id="12989" width="200" height="200"><path d="M870.4 972.8H153.6c-56.32 0-102.4-46.08-102.4-102.4V153.6c0-56.32 46.08-102.4 102.4-102.4h716.8c56.32 0 102.4 46.08 102.4 102.4v716.8c0 56.32-46.08 102.4-102.4 102.4z" fill="#51B44C" p-id="12990"></path><path d="M335.36 345.088c-11.776 0-15.872-10.752-17.408-14.848-3.072-5.632-6.656-11.264-9.728-16.384l1.536-5.632-3.584 2.048c-13.312-13.824-8.192-23.552-4.096-28.16 4.608-5.12 10.752-7.68 17.408-7.68 4.608 0 9.728 1.536 14.336 3.584 14.848 7.68 23.552 19.968 23.552 33.28 0 10.24-1.024 28.16-16.896 32.768-1.536 0.512-3.584 1.024-5.12 1.024M855.552 870.4c-6.656 0-11.776-4.096-15.36-6.656-14.336-10.24-28.16-17.408-43.008-25.088-15.36-7.68-31.232-15.36-45.568-26.112-15.872-11.776-34.304-27.136-46.592-50.176-2.048-3.584-8.192-14.848-4.096-26.112 3.584-9.728 13.312-13.824 19.968-15.872 20.992-6.656 45.056-13.824 71.168-14.848l-1.536-1.024c-30.208-22.528-57.344-43.008-90.112-50.688-45.056-10.752-64.512-40.96-77.824-69.632-8.704-18.432-16.896-37.376-24.576-56.32-16.896-40.448-34.304-81.92-59.392-118.784a399.7696 399.7696 0 0 0-151.552-136.704c-16.896-8.704-39.424-18.432-64.512-18.432h-4.096c-20.48 0-37.376-6.656-52.736-20.48-12.8-11.264-29.184-17.408-46.592-24.064l-8.192-3.072a24.064 24.064 0 0 0-8.192-2.048c-4.096 2.048-5.632 4.096 0 13.312 8.704 12.8 18.432 26.624 29.184 41.472 19.968 26.624 30.72 56.832 37.376 79.872 9.728 33.28 20.48 59.392 40.96 80.384 18.944 19.456 9.216 41.472 3.072 55.808l-5.632 2.56 3.584 1.536c-17.408 40.448-17.408 83.456 0.512 138.752 1.536 4.608 3.584 9.216 6.144 12.8l0.512 0.512c2.56-25.6 5.12-53.76 25.6-77.824 4.608-7.68 10.24-16.384 21.504-16.384 15.872 1.536 18.432 14.848 19.456 19.456 19.968 54.272 49.664 101.376 76.288 141.312 2.048 3.584 2.56 7.68 1.024 11.264-1.536 3.584-5.12 6.656-8.704 7.168-2.048 0.512-4.608 0.512-6.656 0.512-14.848 0-24.064-9.216-50.688-38.912-8.192-8.704-13.824-18.944-18.944-28.16l-4.096-6.656c-0.512 5.12-1.024 9.216-2.048 13.312-6.144 23.552-22.016 37.888-40.96 37.888-11.776 0-23.552-5.632-34.304-16.384-23.552-24.064-36.352-54.784-40.96-97.28-4.608-42.496 0-82.432 13.824-119.296 3.584-10.24 3.584-15.36-3.584-24.064-24.576-29.696-36.352-66.56-46.08-101.888-8.192-22.528-20.48-41.472-36.864-62.976-12.288-15.872-23.04-29.696-28.672-48.128-5.12-18.432-2.56-36.352 7.168-49.664S186.368 153.6 204.8 153.6c39.424 0 70.656 19.968 96.768 38.4l4.096 3.072c4.608 3.584 7.168 5.632 10.24 5.632 82.432 0 141.824 46.592 195.584 94.208 52.736 46.592 94.208 104.96 119.808 169.984 10.752 27.136 23.552 53.76 36.352 79.872 6.144 12.288 12.288 25.088 17.92 37.888 3.072 6.656 7.68 10.752 15.36 13.824 64 26.112 115.2 61.952 156.672 109.056 6.144 6.656 12.288 15.872 9.216 25.6-3.584 11.264-15.36 14.336-23.552 15.872-10.752 2.56-22.016 4.096-32.768 6.144-12.288 2.048-25.088 3.584-37.376 7.168 5.12 4.608 10.752 7.68 15.872 10.24 24.064 11.776 41.984 30.72 58.88 48.64 5.632 5.632 9.728 10.24 13.824 14.336 15.36 15.36 8.704 26.624 6.144 29.696-2.048 4.608-6.656 7.168-12.288 7.168" fill="#FFFFFF" p-id="12991"></path></svg>