<svg t="1714213166814" class="icon" viewBox="0 0 1024 1024" version="1.1" xmlns="http://www.w3.org/2000/svg" p-id="9216" width="200" height="200"><path d="M0.000427 512c0 282.752 229.248 512 512 512s512-229.248 512-512S794.752427 0 512.000427 0 0.000427 229.248 0.000427 512z" fill="#EFF3F8" p-id="9217"></path><path d="M493.227093 900.693333a36.650667 36.650667 0 0 0 36.693334 0l304.213333-175.914666a36.736 36.736 0 0 0 18.346667-31.872V340.864a36.864 36.864 0 0 0-18.346667-31.914667L529.920427 132.949333a36.693333 36.693333 0 0 0-36.736 0L189.01376 308.906667A36.821333 36.821333 0 0 0 170.667093 340.906667v352.042666c0 13.141333 6.997333 25.301333 18.346667 31.872l304.213333 175.914667" fill="#ACDD6E" p-id="9218"></path><path d="M508.416427 716.373333a12.245333 12.245333 0 0 1-5.888-1.493333l-18.517334-11.008c-2.816-1.536-1.408-2.133333-0.597333-2.389333a33.792 33.792 0 0 0 8.405333-3.754667c0.426667-0.256 0.981333-0.128 1.365334 0.170667l14.250666 8.490666c0.554667 0.256 1.28 0.256 1.664 0l55.68-32.170666c0.554667-0.298667 0.853333-0.853333 0.853334-1.536v-64.170667c0-0.682667-0.298667-1.28-0.853334-1.536l-55.68-32c-0.554667-0.298667-1.28-0.298667-1.706666 0l-55.637334 32c-0.554667 0.298667-0.853333 0.981333-0.853333 1.536v64.170667c0 0.554667 0.298667 1.28 0.853333 1.536l15.232 8.746666c8.234667 4.181333 13.397333-0.682667 13.397334-5.546666v-63.317334c0-0.853333 0.682667-1.706667 1.664-1.706666h7.082666c0.853333 0 1.706667 0.725333 1.706667 1.706666v63.317334c0 11.008-5.973333 17.408-16.469333 17.408-3.2 0-5.717333 0-12.8-3.498667l-14.677334-8.362667a11.733333 11.733333 0 0 1-5.888-10.154666v-64.170667c0-4.181333 2.261333-8.064 5.888-10.154667l55.637334-32.128a12.458667 12.458667 0 0 1 11.733333 0l55.68 32.128c3.626667 2.133333 5.845333 5.973333 5.845333 10.154667v64.170667c0 4.181333-2.218667 8.106667-5.845333 10.154666l-55.68 32.170667a14.293333 14.293333 0 0 1-5.845333 1.28z m17.152-44.117333c-24.405333 0-29.44-11.093333-29.44-20.608 0-0.853333 0.682667-1.664 1.706666-1.664h7.253334c0.810667 0 1.493333 0.554667 1.493333 1.408 1.109333 7.381333 4.352 11.008 19.114667 11.008 11.733333 0 16.725333-2.645333 16.725333-8.96 0-3.584-1.365333-6.229333-19.626667-8.021333-15.232-1.536-24.746667-4.906667-24.746666-16.981334 0-11.306667 9.514667-17.962667 25.429333-17.962666 17.834667 0 26.624 6.101333 27.733333 19.456 0 0.426667-0.128 0.853333-0.426666 1.28-0.256 0.256-0.682667 0.554667-1.066667 0.554666h-7.253333a1.621333 1.621333 0 0 1-1.536-1.28c-1.706667-7.637333-6.016-10.154667-17.493334-10.154666-12.8 0-14.336 4.48-14.336 7.808 0 4.053333 1.834667 5.290667 19.114667 7.509333 17.152 2.218667 25.258667 5.418667 25.258667 17.408-0.170667 12.245333-10.197333 19.2-27.904 19.2z" fill="#539E43" p-id="9219"></path><path d="M335.70176 465.408a7.082667 7.082667 0 0 0-3.626667-6.101333l-59.136-33.962667a8.618667 8.618667 0 0 0-3.2-0.981333h-0.597333a6.656 6.656 0 0 0-3.2 0.981333l-59.136 33.962667a7.082667 7.082667 0 0 0-3.626667 6.101333l0.128 91.306667c0 1.28 0.725333 2.517333 1.834667 3.072a3.157333 3.157333 0 0 0 3.456 0l35.157333-20.053334a7.082667 7.082667 0 0 0 3.626667-6.101333V490.88c0-2.517333 1.408-4.864 3.626667-6.101333l14.933333-8.661334a6.741333 6.741333 0 0 1 3.626667-0.981333 5.973333 5.973333 0 0 1 3.498666 0.981333l14.933334 8.661334c2.218667 1.237333 3.626667 3.584 3.626666 6.101333v42.752c0 2.474667 1.408 4.864 3.626667 6.101333l35.157333 20.053334a3.413333 3.413333 0 0 0 3.626667 0 3.456 3.456 0 0 0 1.792-3.072l-0.128-91.306667zM619.98976 339.712a3.84 3.84 0 0 0-3.456 0 3.626667 3.626667 0 0 0-1.834667 3.072v90.453333c0 0.853333-0.426667 1.706667-1.28 2.261334-0.810667 0.426667-1.621333 0.426667-2.474666 0l-14.805334-8.533334a7.210667 7.210667 0 0 0-7.082666 0l-59.178667 34.133334a7.082667 7.082667 0 0 0-3.626667 6.144v68.053333c0 2.517333 1.408 4.864 3.626667 6.101333l59.178667 34.133334a7.210667 7.210667 0 0 0 7.082666 0l59.178667-34.133334a7.082667 7.082667 0 0 0 3.626667-6.101333V365.610667a7.125333 7.125333 0 0 0-3.626667-6.272l-35.328-19.626667z m-5.418667 173.184c0 0.682667-0.298667 1.237333-0.853333 1.536l-20.224 11.690667a2.048 2.048 0 0 1-1.792 0l-20.224-11.690667c-0.554667-0.298667-0.853333-0.981333-0.853333-1.536v-23.381333c0-0.725333 0.298667-1.28 0.853333-1.536l20.224-11.690667a2.048 2.048 0 0 1 1.792 0l20.224 11.690667c0.554667 0.256 0.853333 0.981333 0.853333 1.536v23.381333zM816.85376 488.96a6.954667 6.954667 0 0 0 3.498667-6.144v-16.554667a7.253333 7.253333 0 0 0-3.498667-6.144l-58.752-33.962666a7.253333 7.253333 0 0 0-7.082667 0l-59.178666 34.133333a7.082667 7.082667 0 0 0-3.626667 6.101333v68.053334c0 2.517333 1.408 4.864 3.626667 6.144l58.752 33.408c2.218667 1.28 4.864 1.28 6.954666 0l35.584-19.754667a3.456 3.456 0 0 0 1.834667-3.072 3.456 3.456 0 0 0-1.834667-3.072l-59.434666-34.133333a3.626667 3.626667 0 0 1-1.792-3.029334v-21.333333c0-1.237333 0.682667-2.474667 1.792-2.986667l18.56-10.624a3.413333 3.413333 0 0 1 3.626666 0l18.56 10.581334a3.626667 3.626667 0 0 1 1.792 3.072v16.682666c0 1.28 0.725333 2.56 1.834667 3.072a3.413333 3.413333 0 0 0 3.626667 0l35.157333-20.48z" fill="#333333" p-id="9220"></path><path d="M753.664427 485.76a1.28 1.28 0 0 1 1.365333 0l11.306667 6.528c0.426667 0.256 0.725333 0.682667 0.725333 1.28v13.056a1.450667 1.450667 0 0 1-0.725333 1.28l-11.306667 6.528a1.28 1.28 0 0 1-1.365333 0l-11.306667-6.570667a1.450667 1.450667 0 0 1-0.682667-1.237333v-13.098667c0-0.554667 0.256-0.981333 0.682667-1.28l11.306667-6.485333z" fill="#539E43" p-id="9221"></path><path d="M434.603093 426.453333a7.210667 7.210667 0 0 0-7.125333 0l-58.709333 33.792a6.954667 6.954667 0 0 0-3.498667 6.144V534.186667a7.253333 7.253333 0 0 0 3.498667 6.101333l58.709333 33.834667a7.210667 7.210667 0 0 0 7.125333 0l58.752-33.834667a6.954667 6.954667 0 0 0 3.456-6.101333V466.346667a7.253333 7.253333 0 0 0-3.456-6.144l-58.752-33.792z" fill="#4F984C" p-id="9222"></path><path d="M493.483093 460.245333l-59.008-33.792a9.770667 9.770667 0 0 0-1.834666-0.725333l-66.133334 113.066667a7.338667 7.338667 0 0 0 1.962667 1.664l59.008 33.792a6.826667 6.826667 0 0 0 5.461333 0.725333L495.019093 461.653333a7.253333 7.253333 0 0 0-1.536-1.408z" fill="#41893E" p-id="9223"></path><path d="M493.65376 540.288a7.936 7.936 0 0 0 3.456-4.437333L432.384427 425.6a7.082667 7.082667 0 0 0-5.034667 0.853333l-58.581333 33.706667 63.189333 114.944a9.728 9.728 0 0 0 2.645333-0.853333l59.008-33.962667z" fill="#4A9341" p-id="9224"></path></svg>