<svg t="1714213127476" class="icon" viewBox="0 0 1024 1024" version="1.1" xmlns="http://www.w3.org/2000/svg" p-id="6280" width="200" height="200"><path d="M918.016 64H105.984C82.784 64 64 82.784 64 105.984v812.032C64 941.216 82.784 960 105.984 960h812.032c23.2 0 41.984-18.784 41.984-41.984V105.984C960 82.784 941.216 64 918.016 64z" fill="#3178C6" p-id="6281"></path><path d="M583.84 760.32v98.176a207.744 207.744 0 0 0 56.448 18.4c22.656 4.16 45.632 6.24 68.672 6.144a319.04 319.04 0 0 0 66.816-6.752 163.52 163.52 0 0 0 55.52-22.4 113.344 113.344 0 0 0 37.792-40.512 143.04 143.04 0 0 0 5.952-108.608 109.056 109.056 0 0 0-22.944-35.744 167.52 167.52 0 0 0-35.936-28.064 385.056 385.056 0 0 0-47.264-23.488c-12.8-5.312-24.32-10.496-34.56-15.488a176.32 176.32 0 0 1-26.016-15.36 66.88 66.88 0 0 1-16.512-16.544 34.88 34.88 0 0 1-5.792-19.776c-0.096-6.496 1.728-12.8 5.184-18.272a44.8 44.8 0 0 1 14.688-13.952 78.08 78.08 0 0 1 23.232-9.056 134.72 134.72 0 0 1 30.592-3.2 201.28 201.28 0 0 1 80 17.12c8.416 3.744 16.448 8.256 24.032 13.504V444.8a240.16 240.16 0 0 0-48.8-12.8 397.248 397.248 0 0 0-60.8-4.16 280.352 280.352 0 0 0-66.048 7.552 167.616 167.616 0 0 0-54.912 23.456c-15.552 10.368-28.416 24.32-37.472 40.64a119.392 119.392 0 0 0-13.792 59.072 114.816 114.816 0 0 0 25.248 74.88 192 192 0 0 0 76.64 52.448c13.44 5.536 25.984 10.976 37.6 16.288 10.496 4.672 20.576 10.176 30.144 16.544 7.712 5.024 14.496 11.36 20.032 18.72a38.4 38.4 0 0 1 7.36 23.008 35.2 35.2 0 0 1-4.608 17.664 40.64 40.64 0 0 1-13.92 14.08c-7.168 4.384-15.04 7.552-23.232 9.376-10.688 2.368-21.632 3.52-32.576 3.36a188 188 0 0 1-120.768-44.64z m-164.928-244.416h128v-80.864H190.016v80.864H317.44v360.128h101.472V515.904z" fill="#FFFFFF" p-id="6282"></path></svg>