<svg t="1716865295784" class="icon" viewBox="0 0 1024 1024" version="1.1"
    xmlns="http://www.w3.org/2000/svg" p-id="30272" width="256" height="256">
    <path
        d="M298.666667 810.666667m42.666666 0l341.333334 0q42.666667 0 42.666666 42.666666l0 0q0 42.666667-42.666666 42.666667l-341.333334 0q-42.666667 0-42.666666-42.666667l0 0q0-42.666667 42.666666-42.666666Z"
        fill="#666666" p-id="30273"></path>
    <path d="M469.333333 682.666667h85.333334v213.333333h-85.333334z" fill="#666666" p-id="30274"></path>
    <path
        d="M128 170.666667m85.333333 0l597.333334 0q85.333333 0 85.333333 85.333333l0 426.666667q0 85.333333-85.333333 85.333333l-597.333334 0q-85.333333 0-85.333333-85.333333l0-426.666667q0-85.333333 85.333333-85.333333Z"
        fill="#61BBFF" p-id="30275"></path>
    <path
        d="M128 682.666667h768a85.333333 85.333333 0 0 1-85.333333 85.333333H213.333333a85.333333 85.333333 0 0 1-85.333333-85.333333z"
        fill="#666666" p-id="30276"></path>
</svg>